<?xml version="1.0" standalone="no"?><!DOCTYPE svg PUBLIC "-//W3C//DTD SVG 1.1//EN" "http://www.w3.org/Graphics/SVG/1.1/DTD/svg11.dtd"><svg t="1711343209275" class="icon" viewBox="0 0 1338 1024" version="1.1" xmlns="http://www.w3.org/2000/svg" p-id="4428" xmlns:xlink="http://www.w3.org/1999/xlink" width="261.328125" height="200"><path d="M440.526174 440.526174m-220.263087 0a220.263087 220.263087 0 1 0 440.526175 0 220.263087 220.263087 0 1 0-440.526175 0Z" fill="#EFAC25" p-id="4429"></path><path d="M451.522148 143.291275m-10.995974 0l0 0q-10.995973 0-10.995973-10.995973l0-110.303356q0-10.995973 10.995973-10.995973l0 0q10.995973 0 10.995974 10.995973l0 110.303356q0 10.995973-10.995974 10.995973Z" fill="#EFAC25" p-id="4430"></path><path d="M451.522148 870.056376m-10.995974 0l0 0q-10.995973 0-10.995973-10.995973l0-110.303356q0-10.995973 10.995973-10.995973l0 0q10.995973 0 10.995974 10.995973l0 110.303356q0 10.995973-10.995974 10.995973Z" fill="#EFAC25" p-id="4431"></path><path d="M737.208498 754.645763m-7.775327 7.775328l0 0q-7.775327 7.775327-15.550654 0l-77.996251-77.996251q-7.775327-7.775327 0-15.550655l0 0q7.775327-7.775327 15.550654 0l77.996251 77.996251q7.775327 7.775327 0 15.550655Z" fill="#EFAC25" p-id="4432"></path><path d="M870.056376 429.530201m0 10.995973l0 0q0 10.995973-10.995973 10.995974l-110.303356 0q-10.995973 0-10.995973-10.995974l0 0q0-10.995973 10.995973-10.995973l110.303356 0q10.995973 0 10.995973 10.995973Z" fill="#EFAC25" p-id="4433"></path><path d="M732.627077 121.641561m7.775327 7.775327l0 0q7.775327 7.775327 0 15.550655l-77.99625 77.99625q-7.775327 7.775327-15.550655 0l0 0q-7.775327-7.775327 0-15.550654l77.996251-77.996251q7.775327-7.775327 15.550654 0Z" fill="#EFAC25" p-id="4434"></path><path d="M142.947651 429.530201m0 10.995973l0 0q0 10.995973-10.995973 10.995974l-110.303356 0q-10.995973 0-10.995973-10.995974l0 0q0-10.995973 10.995973-10.995973l110.303356 0q10.995973 0 10.995973 10.995973Z" fill="#EFAC25" p-id="4435"></path><path d="M230.69642 226.293422m-7.775327 7.775327l0 0q-7.775327 7.775327-15.550654 0l-77.996251-77.99625q-7.775327-7.775327 0-15.550655l0 0q7.775327-7.775327 15.550654 0l77.996251 77.996251q7.775327 7.775327 0 15.550654Z" fill="#EFAC25" p-id="4436"></path><path d="M226.178544 650.556207m7.775327 7.775328l0 0q7.775327 7.775327 0 15.550654l-77.996251 77.996251q-7.775327 7.775327-15.550654 0l0 0q-7.775327-7.775327 0-15.550655l77.99625-77.99625q7.775327-7.775327 15.550655 0Z" fill="#EFAC25" p-id="4437"></path><path d="M1072.107383 535.710067a314.416107 314.416107 0 0 0-304.794631-206.174497 312.697987 312.697987 0 0 0-309.261745 219.919464c-124.048322 34.362416-211.672483 123.01745-211.672484 225.417449 0 134.013423 150.163758 242.598658 335.033558 242.598658a409.256376 409.256376 0 0 0 229.540939-65.975839 356.681879 356.681879 0 0 0 211.672483 65.975839c171.812081 0 309.261745-108.585235 309.261745-242.598658 0-121.986577-112.708725-220.606711-259.779865-239.162416z" fill="#A8D2DD" p-id="4438"></path></svg>