<?xml version="1.0" standalone="no"?><!DOCTYPE svg PUBLIC "-//W3C//DTD SVG 1.1//EN" "http://www.w3.org/Graphics/SVG/1.1/DTD/svg11.dtd"><svg t="1711345021500" class="icon" viewBox="0 0 1024 1024" version="1.1" xmlns="http://www.w3.org/2000/svg" p-id="6635" xmlns:xlink="http://www.w3.org/1999/xlink" width="200" height="200"><path d="M563.2 686.4c-140.8 0-292.8 0-332.8-3.2v1.6c-110.4-9.6-180.8-97.6-180.8-222.4 0-123.2 107.2-224 236.8-224 17.6 0 35.2 1.6 52.8 4.8h1.6C355.2 112 460.8 9.6 590.4 9.6 728 9.6 841.6 128 841.6 273.6c0 9.6 0 19.2-1.6 28.8v1.6c54.4 6.4 100.8 36.8 131.2 80 27.2 35.2 41.6 78.4 41.6 123.2 0 112-94.4 174.4-187.2 179.2-25.6-1.6-139.2 0-262.4 0z m260.8-33.6z m-588.8-32h587.2c62.4-3.2 124.8-43.2 124.8-115.2 0-30.4-11.2-60.8-28.8-84.8l-1.6-1.6c-22.4-33.6-60.8-54.4-102.4-54.4h-16c-19.2 1.6-35.2-16-30.4-35.2l1.6-4.8c4.8-17.6 6.4-35.2 6.4-52.8 0-110.4-83.2-200-187.2-200S403.2 161.6 403.2 272v20.8c1.6 19.2-19.2 33.6-36.8 25.6l-8-3.2c-22.4-9.6-46.4-14.4-72-14.4-96 0-172.8 72-172.8 160 0 72 32 152 121.6 160z" fill="#43484D" p-id="6636"></path><path d="M622.4 1016c-8 0-16-3.2-22.4-9.6-11.2-11.2-11.2-30.4-1.6-43.2L736 776c11.2-16 33.6-17.6 48-3.2 11.2 11.2 11.2 30.4 1.6 43.2l-136 187.2c-6.4 8-17.6 12.8-27.2 12.8zM392 1016c-8 0-16-3.2-22.4-9.6-11.2-11.2-11.2-30.4-1.6-43.2l136-185.6c9.6-12.8 27.2-19.2 41.6-11.2 17.6 9.6 22.4 32 11.2 46.4l-137.6 188.8c-6.4 9.6-17.6 14.4-27.2 14.4zM161.6 1016c-8 0-16-3.2-22.4-9.6-11.2-11.2-11.2-30.4-1.6-43.2l136-185.6c9.6-12.8 27.2-19.2 41.6-11.2 17.6 9.6 22.4 32 11.2 48l-137.6 188.8c-6.4 8-17.6 12.8-27.2 12.8z" fill="#229BFF" p-id="6637"></path></svg>