<?xml version="1.0" standalone="no"?><!DOCTYPE svg PUBLIC "-//W3C//DTD SVG 1.1//EN" "http://www.w3.org/Graphics/SVG/1.1/DTD/svg11.dtd"><svg t="1711345155489" class="icon" viewBox="0 0 1024 1024" version="1.1" xmlns="http://www.w3.org/2000/svg" p-id="7977" xmlns:xlink="http://www.w3.org/1999/xlink" width="200" height="200"><path d="M784.48676 250.205746C773.464006 110.411842 656.114946 0 513.346486 0c-142.742862 0-260.081683 110.386243-271.130034 250.159669h-0.91643c-121.741778 0-220.782726 98.953913-220.782726 220.577937 0 121.629144 99.046068 220.577937 220.782726 220.577937h541.394836c121.741778 0 220.782726-98.953913 220.782726-220.577937 0.00512-121.025018-98.073321-219.564233-218.990824-220.53186z m-1.786782 390.173721H241.300022c-93.614047 0-169.769854-76.094371-169.769854-169.636741 0-93.537251 76.155808-169.636741 169.769854-169.636742h21.548894c8.037958 0 15.118528-3.783472 19.79283-9.584112 5.836479-4.669183 9.650669-11.759993 9.650669-19.80819 0-121.731539 99.163821-220.767367 221.054071-220.767367 121.900489 0 221.06431 99.035828 221.06431 220.767367 0 0.670683 0.148472 1.300408 0.199669 1.960852-0.051197 0.660444-0.199669 1.290169-0.199669 1.960852a25.485957 25.485957 0 0 0 25.506436 25.470598h22.787866c93.614047 0 169.769854 76.099491 169.769854 169.636742-0.00512 93.537251-76.160927 169.636741-169.774974 169.636741z m-52.758696 117.594807c-16.854112 10.137042-56.941505 35.326055-65.051139 50.30635-10.418626 19.291098-3.189584 43.471527 16.132232 53.890153a39.831407 39.831407 0 0 0 53.966949-16.101513c8.099394-15.005894 7.193204-62.281371 6.425247-81.92573-0.240627-5.4525-6.747789-9.020943-11.473289-6.16926zM172.603644 914.970431c-16.859232 10.126803-56.931266 35.300457-65.051139 50.306351a39.432069 39.432069 0 0 0-3.107669 30.278013 39.519104 39.519104 0 0 0 19.239901 23.60702 39.918442 39.918442 0 0 0 18.89176 4.781817 39.78021 39.78021 0 0 0 35.05983-20.878211c8.119873-15.000774 7.213683-62.281371 6.445725-81.92573-0.245746-5.4525-6.783627-9.015824-11.478408-6.16926z m315.323441-155.654791c-16.859232 10.121683-56.941505 35.295337-65.061378 50.30635-10.423746 19.291098-3.189584 43.471527 16.132232 53.890154a39.841647 39.841647 0 0 0 53.972069-16.101514c8.099394-15.005894 7.193204-62.281371 6.425246-81.93085-0.235507-5.432021-6.752908-9.010704-11.468169-6.16414z m160.03727 184.309853l-17.908774-4.781816 13.464859-12.7225a19.25014 19.25014 0 0 0 0.757718-27.190823c-7.024253-7.392873-19.787711-7.756373-27.226661-0.752599l-14.273774 13.485338-4.556549-19.08119c-2.421627-10.157521-12.932408-16.664683-23.202563-14.248175a19.25526 19.25526 0 0 0-14.258415 23.166724l4.807415 20.125612-20.023218-5.344985c-10.055126-2.713451-20.873091 3.588922-23.571182 13.61333a19.101668 19.101668 0 0 0 1.935253 14.596317 19.122147 19.122147 0 0 0 11.708796 8.944147l17.903654 4.781817-13.469978 12.72762a19.132387 19.132387 0 0 0-6.015669 13.43926 19.122147 19.122147 0 0 0 5.26819 13.751563 19.342295 19.342295 0 0 0 13.98707 6.010549c4.940528 0 9.63531-1.863577 13.229352-5.257951l14.278894-13.495577 4.561669 19.091429a19.178464 19.178464 0 0 0 18.712569 14.775507 19.25014 19.25014 0 0 0 18.738169-23.694056l-4.807416-20.125612 20.018098 5.344986a19.26038 19.26038 0 0 0 23.571183-13.608211 19.086309 19.086309 0 0 0-1.935254-14.591197 19.055591 19.055591 0 0 0-11.693436-8.959507zM321.392893 801.512357l-17.908774-4.781817 13.464859-12.727619a19.245021 19.245021 0 0 0 0.757718-27.185704c-6.993535-7.408232-19.787711-7.756373-27.216422-0.752598l-14.278894 13.495577-4.561669-19.091429c-2.421627-10.162641-12.942648-16.649323-23.192323-14.248176a19.106788 19.106788 0 0 0-11.934063 8.631845 19.055591 19.055591 0 0 0-2.329472 14.539999l4.807416 20.125613-20.012979-5.344986c-10.060246-2.71857-20.88333 3.588922-23.581422 13.61333a19.25014 19.25014 0 0 0 13.63893 23.535345l17.908774 4.781816-13.464859 12.7225a19.25014 19.25014 0 0 0-0.757718 27.190823 19.342295 19.342295 0 0 0 13.98707 6.010549c4.940528 0 9.63531-1.863577 13.234471-5.25795l14.278894-13.495577 4.561669 19.091429a19.178464 19.178464 0 0 0 18.71257 14.775506c1.505197 0 3.010394-0.17919 4.484873-0.527331a19.106788 19.106788 0 0 0 11.934063-8.631844 19.055591 19.055591 0 0 0 2.329472-14.54l-4.807416-20.120492 20.012979 5.344985a19.285978 19.285978 0 0 0 23.581422-13.61333 19.270619 19.270619 0 0 0-13.649169-23.540464z" p-id="7978"></path></svg>